<svg xmlns="http://www.w3.org/2000/svg" viewBox="0 0 256 256">
  <rect width="256" height="256" fill="#008B8B"/>
  <circle cx="128" cy="128" r="80" fill="none" stroke="#FFFFFF" stroke-width="3"/>
  <circle cx="128" cy="128" r="60" fill="none" stroke="#FFFFFF" stroke-width="2" stroke-dasharray="4 4"/>
  <path d="M128 48 L128 80" stroke="#FFFFFF" stroke-width="3" stroke-linecap="round"/>
  <path d="M128 176 L128 208" stroke="#FFFFFF" stroke-width="3" stroke-linecap="round"/>
  <path d="M48 128 L80 128" stroke="#FFFFFF" stroke-width="3" stroke-linecap="round"/>
  <path d="M176 128 L208 128" stroke="#FFFFFF" stroke-width="3" stroke-linecap="round"/>
  <circle cx="128" cy="80" r="4" fill="#FFFFFF"/>
  <circle cx="128" cy="176" r="4" fill="#FFFFFF"/>
  <circle cx="80" cy="128" r="4" fill="#FFFFFF"/>
  <circle cx="176" cy="128" r="4" fill="#FFFFFF"/>
  <path d="M128 100 L128 120 L140 128 L128 136 L128 156" fill="none" stroke="#FFFFFF" stroke-width="2.5" stroke-linecap="round" stroke-linejoin="round"/>
  <path d="M116 128 L128 128" stroke="#FFFFFF" stroke-width="2.5" stroke-linecap="round"/>
  <circle cx="128" cy="128" r="8" fill="#FFFFFF"/>
  <path d="M90 90 L100 100" stroke="#FFFFFF" stroke-width="2" stroke-linecap="round"/>
  <path d="M156 100 L166 90" stroke="#FFFFFF" stroke-width="2" stroke-linecap="round"/>
  <path d="M90 166 L100 156" stroke="#FFFFFF" stroke-width="2" stroke-linecap="round"/>
  <path d="M156 156 L166 166" stroke="#FFFFFF" stroke-width="2" stroke-linecap="round"/>
  <circle cx="100" cy="100" r="3" fill="#FFFFFF"/>
  <circle cx="156" cy="100" r="3" fill="#FFFFFF"/>
  <circle cx="100" cy="156" r="3" fill="#FFFFFF"/>
  <circle cx="156" cy="156" r="3" fill="#FFFFFF"/>
</svg>